<svg xmlns="http://www.w3.org/2000/svg" xmlns:xlink="http://www.w3.org/1999/xlink" width="439.28" height="70.66"><defs><path id="a" d="M422.71 58.27c-1.9 0-3.65-.14-5.35-.41-2.26-.4-6.29-1.59-7.97-5.18-1.41-3.23-.8-6.64-.21-9.93.13-.7.73-4.32.73-4.32.59-3.54 1.18-7.2 3.43-10.15 3.39-4.54 9.2-5.55 12.36-5.75.96-.08 1.91-.1 2.87-.1 3.2 0 6.68.36 10.62 1.13.25 1.87-.02 3.39-.29 4.88-.12.69-.24 1.38-.34 2.07-3.38-.4-6.49-.74-9.61-.74-.59 0-1.18.02-1.76.04-1.79.08-5.04.57-6.72 3.08-1.3 1.89-1.65 4.21-1.98 6.45-.11.75-.22 1.49-.36 2.22l-.16.91c-.35 1.94-.71 3.94.03 5.75 1 2.33 4.05 2.62 4.95 2.66.78.04 1.56.06 2.35.06 3.12 0 6.34-.34 9.56-1-.1 2.35-.43 4.37-.76 6.36l-.1.56c-3.49.82-7.34 1.41-11.29 1.41"/></defs><use xlink:href="#a" overflow="visible" fill-rule="evenodd" clip-rule="evenodd" fill="#fff"/><defs><path id="b" d="M403.66 18.86c-.9 0-1.79-.12-2.65-.37-1.48-.54-1.87-2.28-1.6-3.77.29-2.11.86-4.39 2.91-5.18.94-.26 1.88-.39 2.8-.39.91 0 1.78.12 2.59.36 1.38.38 1.83 1.96 1.66 3.36-.14 1.6-.39 4.3-2.47 5.4-1.04.39-2.12.59-3.24.59"/></defs><use xlink:href="#b" overflow="visible" fill-rule="evenodd" clip-rule="evenodd" fill="#fff"/><defs><path id="c" d="M392.79 57.69l5.47-34.61h8.62l-4.81 30.44c-.17 1.07-.74 2.14-1.69 2.95s-2.08 1.22-3.15 1.22h-4.44zm0 0"/></defs><use xlink:href="#c" overflow="visible" fill-rule="evenodd" clip-rule="evenodd" fill="#fff"/><defs><path id="d" d="M380.71 58.08c-1.61 0-3.07.04-4.37-.33-2.69-.75-4.78-2.69-5.46-5.04-.74-2.2-.33-4.51.08-6.66l2.58-16.35h-1.56c-.84 0-1.62-.32-2.16-.96-.54-.64-.72-1.48-.59-2.32l.53-3.36h5.52c.31-1.81.99-3.82 1.67-5.82l1.03-3.08 3.63.01c1.02 0 2.28-.01 3.31-.03l-.83 5.24-.58 3.69h5.93c.85 0 1.64.32 2.18.97.54.65.73 1.49.6 2.33l-.53 3.37h-9.5l-2.78 17.58c-.25 1.25 0 2.84 1.26 3.37.9.33 1.91.49 3.16.49.93 0 1.85-.08 2.78-.17l1.5-.11-.84 5.2-.25 1.61-6.31.37zm0 0"/></defs><use xlink:href="#d" overflow="visible" fill-rule="evenodd" clip-rule="evenodd" fill="#fff"/><defs><path id="e" d="M327.5 70.66l7.49-47.4 2.7-.24h4.27l.36.84.11 1.07c3.77-1.79 7.15-2.5 10.23-2.5 1.87 0 3.66.27 5.31.81 2.93.86 5.24 3.25 5.9 6.04.85 3.35.24 6.75-.34 10.03-.18 1.02-.37 2.02-.51 3.02-.61 4.1-1.67 8.73-4.91 11.9-2.7 2.69-6.75 4.05-12.04 4.05h-.01c-3.13 0-5.67-.36-8.23-1.05l-1.38 8.72c-.19 1.21-.84 2.41-1.91 3.33-1.07.92-2.35 1.38-3.56 1.38h-3.48zm11.91-20.09c1.4 0 3.75.41 6.09.41 1.68 0 3.16-.2 4.55-.6 2.12-.65 3.48-2.8 4-6.36.18-1.31.42-2.62.66-3.93.38-2.02.76-4.1.87-6.17.18-1.62-.85-3.53-2.65-3.82a16.95 16.95 0 0 0-3.39-.33c-2.11 0-4.38.33-7.13 1.04-.24 2.48-.69 5.2-1.13 7.93-.64 3.95-1.29 7.89-2.02 11.84h.15v-.01zm0 0"/></defs><use xlink:href="#e" overflow="visible" fill-rule="evenodd" clip-rule="evenodd" fill="#fff"/><defs><path id="f" d="M325.21 18.85c-.9 0-1.78-.13-2.6-.37-1.46-.54-1.85-2.27-1.59-3.75.31-2.2.86-4.38 2.87-5.18 1.09-.28 2.08-.42 2.99-.42 1.16 0 2.19.23 3.06.66 1.34 1.1 1.1 2.8.9 4.16-.22 1.62-.77 3.76-2.69 4.44-.96.32-1.95.46-2.94.46"/></defs><use xlink:href="#f" overflow="visible" fill-rule="evenodd" clip-rule="evenodd" fill="#fff"/><defs><path id="g" d="M314.44 57.69l5.47-34.61h8.62l-4.81 30.44c-.17 1.07-.74 2.14-1.69 2.95-.94.82-2.08 1.22-3.14 1.22h-4.45zm0 0"/></defs><use xlink:href="#g" overflow="visible" fill-rule="evenodd" clip-rule="evenodd" fill="#fff"/><defs><path id="h" d="M287.14 57.69l5.44-34.43 1.94-.24h2.02c1.05 0 2.09.01 3.13.04l.66 3.18 1.08-.66c3.9-1.43 8.22-2.91 12.48-3.24l-.77 4.83-.5 3.13c-4.45.46-8.82.77-12.87 2.1l-3.44 21.77c-.14.91-.63 1.81-1.44 2.51-.81.69-1.77 1.04-2.67 1.04h-5.06v-.03zm0 0"/></defs><use xlink:href="#h" overflow="visible" fill-rule="evenodd" clip-rule="evenodd" fill="#fff"/><defs><path id="i" d="M269.18 58.27c-1.89 0-3.65-.13-5.35-.41-2.27-.4-6.32-1.6-7.98-5.2-1.39-3.22-.78-6.61-.2-9.89l.78-4.56c.49-2.97.98-6.04 2.58-8.7 1.87-3.3 5.62-5.75 10.01-6.53 1.91-.36 3.97-.54 6.12-.54 3.18 0 6.73.37 10.88 1.19l-1.09 6.89c-3.39-.4-6.35-.73-9.39-.73-.63 0-1.27.02-1.9.04-1.79.08-5.04.58-6.7 3.11-1.28 1.89-1.61 4.19-1.95 6.42-.11.76-.22 1.5-.37 2.24l-.15.86c-.35 1.94-.73 3.95.02 5.77 1.01 2.33 4.03 2.62 4.93 2.67.79.04 1.57.06 2.36.06 3.15 0 6.54-.34 9.75-1.01l-1.1 6.93c-3.51.8-7.3 1.39-11.25 1.39"/></defs><use xlink:href="#i" overflow="visible" fill-rule="evenodd" clip-rule="evenodd" fill="#fff"/><defs><path id="j" d="M233.79 58.28c-3.92 0-8.02-.69-11.79-2.04l1.16-7.32c4.17 1.28 7.88 2.05 11.5 2.05 1.37 0 2.72-.11 4.07-.35 1.2-.21 1.95-1.31 2.15-2.32.22-1.05-.11-1.99-.88-2.52-1.55-1.03-3.26-1.88-4.9-2.7-1.92-.94-3.89-1.91-5.65-3.2-1.8-1.29-2.86-3.35-2.83-5.47.01-2.84.64-6.72 3.48-9.04 2.86-2.25 6.65-2.67 9.98-2.89.81-.06 1.61-.08 2.43-.08 3.28 0 6.61.48 9.71 1.43l-1.12 7.06c-3.51-.65-6.41-1.09-9.14-1.09-1.66 0-3.27.17-4.77.51-1 .17-1.63 1.14-1.75 2.03-.05.4-.06 1.4.92 1.85 1.44.82 2.89 1.56 4.33 2.31 1.92.99 3.83 1.97 5.67 3.09 2.25 1.38 3.58 3.54 3.57 5.78 0 2.47-.47 7.03-3.67 9.81-2.79 2.35-6.58 2.78-10.23 3.02-.74.06-1.5.08-2.24.08"/></defs><use xlink:href="#j" overflow="visible" fill-rule="evenodd" clip-rule="evenodd" fill="#fff"/><defs><path id="k" d="M212.27 57.7c-1.1 0-2.13-.41-2.83-1.25-.7-.84-.95-1.93-.78-3.02l1.03-6.49 1.43-8.86.22-1.02c.27-1.62.54-3.3.16-4.91-.32-1.4-1.8-2.15-3.12-2.27-.63-.08-1.24-.11-1.86-.11-2.52 0-5.01.56-7.16 1.11l-1.4 8.89-2.79 17.76h-8.72l2.61-16.3 2.84-17.97 3.77-.24 3.21.01.39 1 .08.88c3.29-1.74 6.89-2.5 10.26-2.5 1.81 0 3.56.22 5.21.65 2.24.6 3.87 1.72 4.71 3.23 1.55 2.69 1.17 5.8.73 9.01l-3.54 22.4h-4.45zm0 0"/></defs><use xlink:href="#k" overflow="visible" fill-rule="evenodd" clip-rule="evenodd" fill="#fff"/><defs><path id="l" d="M162.81 58.27c-1.93 0-3.78-.28-5.48-.84-2.89-.84-5.16-3.24-5.76-6.1-.74-3.45-.1-6.9.53-10.23.21-1.1.41-2.2.57-3.3.53-3.66 1.57-8.24 4.94-11.19 3.08-2.81 7.57-4.18 13.74-4.18l1.19.01c4.84.12 9.05.79 12.83 2.07l-5.24 33.15h-5.25c-.59 0-1.14-.2-1.56-.62-.41-.42-.61-.97-.6-1.55l-.01.39c-3.44 1.69-6.82 2.39-9.9 2.39m7.18-28.52c-1.73 0-3.21.22-4.51.68-2.56.96-3.4 3.85-3.92 6.83-.15 1.13-.36 2.26-.57 3.39-.41 2.2-.84 4.48-.77 6.75.01 1.48.98 2.78 2.31 3.12 1.07.28 2.19.43 3.42.43 2.33 0 4.7-.52 6.73-1.03l1.49-9.43 1.67-10.62-1.4.19c-1.48-.16-2.97-.31-4.45-.31"/></defs><use xlink:href="#l" overflow="visible" fill-rule="evenodd" clip-rule="evenodd" fill="#fff"/><defs><path id="m" d="M125.06 57.69l5.44-34.43 1.94-.24h2.02c1.05 0 2.09.01 3.13.04l.66 3.18 1.08-.66c3.9-1.43 8.22-2.91 12.48-3.24l-.77 4.83-.5 3.13c-4.45.46-8.81.77-12.87 2.1l-3.44 21.77c-.14.91-.63 1.81-1.44 2.51-.8.69-1.77 1.04-2.67 1.04h-5.06v-.03zm0 0"/></defs><use xlink:href="#m" overflow="visible" fill-rule="evenodd" clip-rule="evenodd" fill="#fff"/><defs><path id="n" d="M112.96 58.08c-1.61 0-3.06.03-4.37-.33-2.69-.75-4.78-2.69-5.46-5.04-.75-2.2-.33-4.51.08-6.66l2.58-16.35h-1.56c-.84 0-1.62-.32-2.17-.96-.54-.64-.72-1.48-.59-2.32l.53-3.36h5.52c.31-1.81.99-3.82 1.67-5.82l1.03-3.08 3.63.01c1.02 0 2.28-.01 3.31-.03l-.83 5.24-.58 3.69h5.93c.84 0 1.64.32 2.18.97.54.64.73 1.49.6 2.33l-.53 3.37h-9.5l-2.78 17.58c-.25 1.25 0 2.84 1.26 3.37.9.33 1.91.49 3.16.49.93 0 1.86-.08 2.78-.17l1.5-.11-.84 5.21-.25 1.61-6.3.36zm0 0"/></defs><use xlink:href="#n" overflow="visible" fill-rule="evenodd" clip-rule="evenodd" fill="#fff"/><linearGradient id="o" gradientUnits="userSpaceOnUse" x1="23.09" y1="51.448" x2="49.076" y2="51.448"><stop offset="0" stop-color="#f89623"/><stop offset="1" stop-color="#ffc61d"/></linearGradient><path d="M23.09 51.45c0 7.17 5.82 12.99 12.99 12.99s12.99-5.82 12.99-12.99-5.82-12.99-12.99-12.99-12.99 5.81-12.99 12.99" fill-rule="evenodd" clip-rule="evenodd" fill="url(#o)"/><defs><path id="p" d="M45.26 4.14c-1.25.63-2.56 1.26-4.05 1.73-1.42.45-3.01.77-4.86.81-1.75.07-3.59-.25-5.26-.77-1.54-.48-2.89-1.12-4.17-1.77C21.4 1.05 15.46-1.53 9.19 1.07 3.55 3.42-.28 9.27.01 15.41c.27 6.06 4.11 11.17 9.47 13.27 6.21 2.44 12.01-.14 17.43-3.19 1.28-.64 2.63-1.28 4.17-1.76 1.67-.51 3.51-.84 5.26-.76 1.85.04 3.44.36 4.86.81 1.49.47 2.8 1.1 4.05 1.72 5.42 3.05 11.21 5.62 17.42 3.2 5.34-2.1 9.19-7.19 9.48-13.28.28-6.14-3.49-11.98-9.15-14.33C61.18.32 59.39 0 57.63 0c-4.31 0-8.44 1.94-12.37 4.14m6.98 10.77c0-2.87 2.33-5.19 5.19-5.19 2.87 0 5.19 2.32 5.19 5.19 0 2.87-2.32 5.19-5.19 5.19-2.86 0-5.19-2.32-5.19-5.19"/></defs><linearGradient id="q" gradientUnits="userSpaceOnUse" x1="72.17" y1="14.826" x2="0" y2="14.826"><stop offset="0" stop-color="#ffc61d"/><stop offset="1" stop-color="#f89623"/></linearGradient><use xlink:href="#p" overflow="visible" fill-rule="evenodd" clip-rule="evenodd" fill="url(#q)"/></svg>