<?xml version="1.0" encoding="utf-8"?>
<!-- Generator: Adobe Illustrator 22.0.1, SVG Export Plug-In . SVG Version: 6.00 Build 0)  -->
<svg version="1.1" id="Layer_1" xmlns="http://www.w3.org/2000/svg" xmlns:xlink="http://www.w3.org/1999/xlink" x="0px" y="0px"
	 width="439.28px" height="70.66px" viewBox="0 0 439.28 70.66" style="enable-background:new 0 0 439.28 70.66;"
	 xml:space="preserve">
<style type="text/css">
	.st0{fill-rule:evenodd;clip-rule:evenodd;fill:url(#SVGID_29_);}
</style>
<g>
	<g>
		<defs>
			<path id="SVGID_1_" d="M422.71,58.27c-1.9,0-3.65-0.14-5.35-0.41c-2.26-0.4-6.29-1.59-7.97-5.18c-1.41-3.23-0.8-6.64-0.21-9.93
				c0.13-0.7,0.73-4.32,0.73-4.32c0.59-3.54,1.18-7.2,3.43-10.15c3.39-4.54,9.2-5.55,12.36-5.75c0.96-0.08,1.91-0.1,2.87-0.1
				c3.2,0,6.68,0.36,10.62,1.13c0.25,1.87-0.02,3.39-0.29,4.88c-0.12,0.69-0.24,1.38-0.34,2.07c-3.38-0.4-6.49-0.74-9.61-0.74
				c-0.59,0-1.18,0.02-1.76,0.04c-1.79,0.08-5.04,0.57-6.72,3.08c-1.3,1.89-1.65,4.21-1.98,6.45c-0.11,0.75-0.22,1.49-0.36,2.22
				l-0.16,0.91c-0.35,1.94-0.71,3.94,0.03,5.75c1,2.33,4.05,2.62,4.95,2.66c0.78,0.04,1.56,0.06,2.35,0.06c3.12,0,6.34-0.34,9.56-1
				c-0.1,2.35-0.43,4.37-0.76,6.36l-0.1,0.56C430.51,57.68,426.66,58.27,422.71,58.27"/>
		</defs>
		<use xlink:href="#SVGID_1_"  style="overflow:visible;fill-rule:evenodd;clip-rule:evenodd;fill:#FFFFFF;"/>
		<clipPath id="SVGID_2_">
			<use xlink:href="#SVGID_1_"  style="overflow:visible;"/>
		</clipPath>
	</g>
	<g>
		<defs>
			<path id="SVGID_3_" d="M403.66,18.86c-0.9,0-1.79-0.12-2.65-0.37c-1.48-0.54-1.87-2.28-1.6-3.77c0.29-2.11,0.86-4.39,2.91-5.18
				c0.94-0.26,1.88-0.39,2.8-0.39c0.91,0,1.78,0.12,2.59,0.36c1.38,0.38,1.83,1.96,1.66,3.36c-0.14,1.6-0.39,4.3-2.47,5.4
				C405.86,18.66,404.78,18.86,403.66,18.86"/>
		</defs>
		<use xlink:href="#SVGID_3_"  style="overflow:visible;fill-rule:evenodd;clip-rule:evenodd;fill:#FFFFFF;"/>
		<clipPath id="SVGID_4_">
			<use xlink:href="#SVGID_3_"  style="overflow:visible;"/>
		</clipPath>
	</g>
	<g>
		<defs>
			<path id="SVGID_5_" d="M392.79,57.69l5.47-34.61h8.62l-4.81,30.44c-0.17,1.07-0.74,2.14-1.69,2.95
				c-0.95,0.81-2.08,1.22-3.15,1.22H392.79L392.79,57.69L392.79,57.69L392.79,57.69L392.79,57.69z M392.79,57.69"/>
		</defs>
		<use xlink:href="#SVGID_5_"  style="overflow:visible;fill-rule:evenodd;clip-rule:evenodd;fill:#FFFFFF;"/>
		<clipPath id="SVGID_6_">
			<use xlink:href="#SVGID_5_"  style="overflow:visible;"/>
		</clipPath>
	</g>
	<g>
		<defs>
			<path id="SVGID_7_" d="M380.71,58.08c-1.61,0-3.07,0.04-4.37-0.33c-2.69-0.75-4.78-2.69-5.46-5.04c-0.74-2.2-0.33-4.51,0.08-6.66
				l2.58-16.35h-1.56c-0.84,0-1.62-0.32-2.16-0.96c-0.54-0.64-0.72-1.48-0.59-2.32l0.53-3.36h5.52c0.31-1.81,0.99-3.82,1.67-5.82
				l1.03-3.08l3.63,0.01c1.02,0,2.28-0.01,3.31-0.03l-0.83,5.24l-0.58,3.69h5.93c0.85,0,1.64,0.32,2.18,0.97
				c0.54,0.65,0.73,1.49,0.6,2.33l-0.53,3.37h-9.5l-2.78,17.58c-0.25,1.25,0,2.84,1.26,3.37c0.9,0.33,1.91,0.49,3.16,0.49
				c0.93,0,1.85-0.08,2.78-0.17l1.5-0.11l-0.84,5.2l-0.25,1.61L380.71,58.08L380.71,58.08L380.71,58.08L380.71,58.08L380.71,58.08z
				 M380.71,58.08"/>
		</defs>
		<use xlink:href="#SVGID_7_"  style="overflow:visible;fill-rule:evenodd;clip-rule:evenodd;fill:#FFFFFF;"/>
		<clipPath id="SVGID_8_">
			<use xlink:href="#SVGID_7_"  style="overflow:visible;"/>
		</clipPath>
	</g>
	<g>
		<defs>
			<path id="SVGID_9_" d="M327.5,70.66l7.49-47.4l2.7-0.24l4.27,0l0.36,0.84l0.11,1.07c3.77-1.79,7.15-2.5,10.23-2.5
				c1.87,0,3.66,0.27,5.31,0.81c2.93,0.86,5.24,3.25,5.9,6.04c0.85,3.35,0.24,6.75-0.34,10.03c-0.18,1.02-0.37,2.02-0.51,3.02
				c-0.61,4.1-1.67,8.73-4.91,11.9c-2.7,2.69-6.75,4.05-12.04,4.05h-0.01c-3.13,0-5.67-0.36-8.23-1.05l-1.38,8.72
				c-0.19,1.21-0.84,2.41-1.91,3.33c-1.07,0.92-2.35,1.38-3.56,1.38H327.5L327.5,70.66L327.5,70.66L327.5,70.66L327.5,70.66z
				 M339.41,50.57c1.4,0,3.75,0.41,6.09,0.41c1.68,0,3.16-0.2,4.55-0.6c2.12-0.65,3.48-2.8,4-6.36c0.18-1.31,0.42-2.62,0.66-3.93
				c0.38-2.02,0.76-4.1,0.87-6.17c0.18-1.62-0.85-3.53-2.65-3.82c-1.08-0.22-2.21-0.33-3.39-0.33c-2.11,0-4.38,0.33-7.13,1.04
				c-0.24,2.48-0.69,5.2-1.13,7.93c-0.64,3.95-1.29,7.89-2.02,11.84H339.41L339.41,50.57L339.41,50.57L339.41,50.57L339.41,50.57z
				 M339.41,50.57"/>
		</defs>
		<use xlink:href="#SVGID_9_"  style="overflow:visible;fill-rule:evenodd;clip-rule:evenodd;fill:#FFFFFF;"/>
		<clipPath id="SVGID_10_">
			<use xlink:href="#SVGID_9_"  style="overflow:visible;"/>
		</clipPath>
	</g>
	<g>
		<defs>
			<path id="SVGID_11_" d="M325.21,18.85c-0.9,0-1.78-0.13-2.6-0.37c-1.46-0.54-1.85-2.27-1.59-3.75c0.31-2.2,0.86-4.38,2.87-5.18
				c1.09-0.28,2.08-0.42,2.99-0.42c1.16,0,2.19,0.23,3.06,0.66c1.34,1.1,1.1,2.8,0.9,4.16c-0.22,1.62-0.77,3.76-2.69,4.44
				C327.19,18.71,326.2,18.85,325.21,18.85"/>
		</defs>
		<use xlink:href="#SVGID_11_"  style="overflow:visible;fill-rule:evenodd;clip-rule:evenodd;fill:#FFFFFF;"/>
		<clipPath id="SVGID_12_">
			<use xlink:href="#SVGID_11_"  style="overflow:visible;"/>
		</clipPath>
	</g>
	<g>
		<defs>
			<path id="SVGID_13_" d="M314.44,57.69l5.47-34.61h8.62l-4.81,30.44c-0.17,1.07-0.74,2.14-1.69,2.95
				c-0.94,0.82-2.08,1.22-3.14,1.22H314.44L314.44,57.69L314.44,57.69L314.44,57.69L314.44,57.69z M314.44,57.69"/>
		</defs>
		<use xlink:href="#SVGID_13_"  style="overflow:visible;fill-rule:evenodd;clip-rule:evenodd;fill:#FFFFFF;"/>
		<clipPath id="SVGID_14_">
			<use xlink:href="#SVGID_13_"  style="overflow:visible;"/>
		</clipPath>
	</g>
	<g>
		<defs>
			<path id="SVGID_15_" d="M287.14,57.69l5.44-34.43l1.94-0.24h2.02c1.05,0,2.09,0.01,3.13,0.04l0.66,3.18l1.08-0.66
				c3.9-1.43,8.22-2.91,12.48-3.24l-0.77,4.83l-0.5,3.13c-4.45,0.46-8.82,0.77-12.87,2.1l-3.44,21.77
				c-0.14,0.91-0.63,1.81-1.44,2.51c-0.81,0.69-1.77,1.04-2.67,1.04H287.14L287.14,57.69L287.14,57.69L287.14,57.69L287.14,57.69z
				 M287.14,57.69"/>
		</defs>
		<use xlink:href="#SVGID_15_"  style="overflow:visible;fill-rule:evenodd;clip-rule:evenodd;fill:#FFFFFF;"/>
		<clipPath id="SVGID_16_">
			<use xlink:href="#SVGID_15_"  style="overflow:visible;"/>
		</clipPath>
	</g>
	<g>
		<defs>
			<path id="SVGID_17_" d="M269.18,58.27c-1.89,0-3.65-0.13-5.35-0.41c-2.27-0.4-6.32-1.6-7.98-5.2c-1.39-3.22-0.78-6.61-0.2-9.89
				c0.12-0.7,0.64-3.74,0.78-4.56c0.49-2.97,0.98-6.04,2.58-8.7c1.87-3.3,5.62-5.75,10.01-6.53c1.91-0.36,3.97-0.54,6.12-0.54
				c3.18,0,6.73,0.37,10.88,1.19l-1.09,6.89c-3.39-0.4-6.35-0.73-9.39-0.73c-0.63,0-1.27,0.02-1.9,0.04
				c-1.79,0.08-5.04,0.58-6.7,3.11c-1.28,1.89-1.61,4.19-1.95,6.42c-0.11,0.76-0.22,1.5-0.37,2.24l-0.15,0.86
				c-0.35,1.94-0.73,3.95,0.02,5.77c1.01,2.33,4.03,2.62,4.93,2.67c0.79,0.04,1.57,0.06,2.36,0.06c3.15,0,6.54-0.34,9.75-1.01
				l-1.1,6.93C276.92,57.68,273.13,58.27,269.18,58.27"/>
		</defs>
		<use xlink:href="#SVGID_17_"  style="overflow:visible;fill-rule:evenodd;clip-rule:evenodd;fill:#FFFFFF;"/>
		<clipPath id="SVGID_18_">
			<use xlink:href="#SVGID_17_"  style="overflow:visible;"/>
		</clipPath>
	</g>
	<g>
		<defs>
			<path id="SVGID_19_" d="M233.79,58.28c-3.92,0-8.02-0.69-11.79-2.04l1.16-7.32c4.17,1.28,7.88,2.05,11.5,2.05
				c1.37,0,2.72-0.11,4.07-0.35c1.2-0.21,1.95-1.31,2.15-2.32c0.22-1.05-0.11-1.99-0.88-2.52c-1.55-1.03-3.26-1.88-4.9-2.7
				c-1.92-0.94-3.89-1.91-5.65-3.2c-1.8-1.29-2.86-3.35-2.83-5.47c0.01-2.84,0.64-6.72,3.48-9.04c2.86-2.25,6.65-2.67,9.98-2.89
				c0.81-0.06,1.61-0.08,2.43-0.08c3.28,0,6.61,0.48,9.71,1.43l-1.12,7.06c-3.51-0.65-6.41-1.09-9.14-1.09
				c-1.66,0-3.27,0.17-4.77,0.51c-1,0.17-1.63,1.14-1.75,2.03c-0.05,0.4-0.06,1.4,0.92,1.85c1.44,0.82,2.89,1.56,4.33,2.31
				c1.92,0.99,3.83,1.97,5.67,3.09c2.25,1.38,3.58,3.54,3.57,5.78c0,2.47-0.47,7.03-3.67,9.81c-2.79,2.35-6.58,2.78-10.23,3.02
				C235.29,58.26,234.53,58.28,233.79,58.28"/>
		</defs>
		<use xlink:href="#SVGID_19_"  style="overflow:visible;fill-rule:evenodd;clip-rule:evenodd;fill:#FFFFFF;"/>
		<clipPath id="SVGID_20_">
			<use xlink:href="#SVGID_19_"  style="overflow:visible;"/>
		</clipPath>
	</g>
	<g>
		<defs>
			<path id="SVGID_21_" d="M212.27,57.7c-1.1,0-2.13-0.41-2.83-1.25c-0.7-0.84-0.95-1.93-0.78-3.02l1.03-6.49l1.43-8.86l0.22-1.02
				c0.27-1.62,0.54-3.3,0.16-4.91c-0.32-1.4-1.8-2.15-3.12-2.27c-0.63-0.08-1.24-0.11-1.86-0.11c-2.52,0-5.01,0.56-7.16,1.11
				l-1.4,8.89l-2.79,17.76h-8.72l2.61-16.3l2.84-17.97l3.77-0.24l3.21,0.01l0.39,1l0.08,0.88c3.29-1.74,6.89-2.5,10.26-2.5
				c1.81,0,3.56,0.22,5.21,0.65c2.24,0.6,3.87,1.72,4.71,3.23c1.55,2.69,1.17,5.8,0.73,9.01l-3.54,22.4H212.27L212.27,57.7
				L212.27,57.7L212.27,57.7L212.27,57.7z M212.27,57.7"/>
		</defs>
		<use xlink:href="#SVGID_21_"  style="overflow:visible;fill-rule:evenodd;clip-rule:evenodd;fill:#FFFFFF;"/>
		<clipPath id="SVGID_22_">
			<use xlink:href="#SVGID_21_"  style="overflow:visible;"/>
		</clipPath>
	</g>
	<g>
		<defs>
			<path id="SVGID_23_" d="M162.81,58.27c-1.93,0-3.78-0.28-5.48-0.84c-2.89-0.84-5.16-3.24-5.76-6.1c-0.74-3.45-0.1-6.9,0.53-10.23
				c0.21-1.1,0.41-2.2,0.57-3.3c0.53-3.66,1.57-8.24,4.94-11.19c3.08-2.81,7.57-4.18,13.74-4.18l1.19,0.01
				c4.84,0.12,9.05,0.79,12.83,2.07l-5.24,33.15h-5.25c-0.59,0-1.14-0.2-1.56-0.62c-0.41-0.42-0.61-0.97-0.6-1.55l-0.01,0.39
				C169.27,57.57,165.89,58.27,162.81,58.27 M169.99,29.75c-1.73,0-3.21,0.22-4.51,0.68c-2.56,0.96-3.4,3.85-3.92,6.83
				c-0.15,1.13-0.36,2.26-0.57,3.39c-0.41,2.2-0.84,4.48-0.77,6.75c0.01,1.48,0.98,2.78,2.31,3.12c1.07,0.28,2.19,0.43,3.42,0.43
				c2.33,0,4.7-0.52,6.73-1.03l1.49-9.43l1.67-10.62l-1.4,0.19C172.96,29.9,171.47,29.75,169.99,29.75"/>
		</defs>
		<use xlink:href="#SVGID_23_"  style="overflow:visible;fill-rule:evenodd;clip-rule:evenodd;fill:#FFFFFF;"/>
		<clipPath id="SVGID_24_">
			<use xlink:href="#SVGID_23_"  style="overflow:visible;"/>
		</clipPath>
	</g>
	<g>
		<defs>
			<path id="SVGID_25_" d="M125.06,57.69l5.44-34.43l1.94-0.24h2.02c1.05,0,2.09,0.01,3.13,0.04l0.66,3.18l1.08-0.66
				c3.9-1.43,8.22-2.91,12.48-3.24l-0.77,4.83l-0.5,3.13c-4.45,0.46-8.81,0.77-12.87,2.1l-3.44,21.77
				c-0.14,0.91-0.63,1.81-1.44,2.51c-0.8,0.69-1.77,1.04-2.67,1.04H125.06L125.06,57.69L125.06,57.69L125.06,57.69L125.06,57.69z
				 M125.06,57.69"/>
		</defs>
		<use xlink:href="#SVGID_25_"  style="overflow:visible;fill-rule:evenodd;clip-rule:evenodd;fill:#FFFFFF;"/>
		<clipPath id="SVGID_26_">
			<use xlink:href="#SVGID_25_"  style="overflow:visible;"/>
		</clipPath>
	</g>
	<g>
		<defs>
			<path id="SVGID_27_" d="M112.96,58.08c-1.61,0-3.06,0.03-4.37-0.33c-2.69-0.75-4.78-2.69-5.46-5.04
				c-0.75-2.2-0.33-4.51,0.08-6.66l2.58-16.35h-1.56c-0.84,0-1.62-0.32-2.17-0.96c-0.54-0.64-0.72-1.48-0.59-2.32l0.53-3.36h5.52
				c0.31-1.81,0.99-3.82,1.67-5.82l1.03-3.08l3.63,0.01c1.02,0,2.28-0.01,3.31-0.03l-0.83,5.24l-0.58,3.69h5.93
				c0.84,0,1.64,0.32,2.18,0.97c0.54,0.64,0.73,1.49,0.6,2.33l-0.53,3.37h-9.5l-2.78,17.58c-0.25,1.25,0,2.84,1.26,3.37
				c0.9,0.33,1.91,0.49,3.16,0.49c0.93,0,1.86-0.08,2.78-0.17l1.5-0.11l-0.84,5.21l-0.25,1.61L112.96,58.08L112.96,58.08
				L112.96,58.08L112.96,58.08L112.96,58.08z M112.96,58.08"/>
		</defs>
		<use xlink:href="#SVGID_27_"  style="overflow:visible;fill-rule:evenodd;clip-rule:evenodd;fill:#FFFFFF;"/>
		<clipPath id="SVGID_28_">
			<use xlink:href="#SVGID_27_"  style="overflow:visible;"/>
		</clipPath>
	</g>
	<linearGradient id="SVGID_29_" gradientUnits="userSpaceOnUse" x1="23.0898" y1="51.4476" x2="49.0758" y2="51.4476">
		<stop  offset="0" style="stop-color:#F89623"/>
		<stop  offset="1" style="stop-color:#FFC61D"/>
	</linearGradient>
	<path class="st0" d="M23.09,51.45c0,7.17,5.82,12.99,12.99,12.99c7.17,0,12.99-5.82,12.99-12.99c0-7.17-5.82-12.99-12.99-12.99
		C28.91,38.46,23.09,44.27,23.09,51.45"/>
	<g>
		<defs>
			<path id="SVGID_30_" d="M45.26,4.14c-1.25,0.63-2.56,1.26-4.05,1.73c-1.42,0.45-3.01,0.77-4.86,0.81
				c-1.75,0.07-3.59-0.25-5.26-0.77c-1.54-0.48-2.89-1.12-4.17-1.77C21.4,1.05,15.46-1.53,9.19,1.07c-5.64,2.35-9.47,8.2-9.18,14.34
				c0.27,6.06,4.11,11.17,9.47,13.27c6.21,2.44,12.01-0.14,17.43-3.19c1.28-0.64,2.63-1.28,4.17-1.76c1.67-0.51,3.51-0.84,5.26-0.76
				c1.85,0.04,3.44,0.36,4.86,0.81c1.49,0.47,2.8,1.1,4.05,1.72c5.42,3.05,11.21,5.62,17.42,3.2c5.34-2.1,9.19-7.19,9.48-13.28
				C72.43,9.28,68.66,3.44,63,1.09C61.18,0.32,59.39,0,57.63,0C53.32,0,49.19,1.94,45.26,4.14 M52.24,14.91
				c0-2.87,2.33-5.19,5.19-5.19c2.87,0,5.19,2.32,5.19,5.19c0,2.87-2.32,5.19-5.19,5.19C54.57,20.1,52.24,17.78,52.24,14.91"/>
		</defs>
		<linearGradient id="SVGID_31_" gradientUnits="userSpaceOnUse" x1="72.1704" y1="14.8259" x2="0" y2="14.8259">
			<stop  offset="0" style="stop-color:#FFC61D"/>
			<stop  offset="1" style="stop-color:#F89623"/>
		</linearGradient>
		<use xlink:href="#SVGID_30_"  style="overflow:visible;fill-rule:evenodd;clip-rule:evenodd;fill:url(#SVGID_31_);"/>
		<clipPath id="SVGID_32_">
			<use xlink:href="#SVGID_30_"  style="overflow:visible;"/>
		</clipPath>
	</g>
</g>
</svg>
